<svg viewBox="0 0 220.32 209.02" xmlns="http://www.w3.org/2000/svg"><g fill="#a3ce56"><path d="m80.2 134.57c2.17.41 5.11-.2 5.12-2.55l.12-30.96c.02-3.73 1.13-9.55 4.16-12.17 2.73-2.36 7.45-3.24 10.86-2.64 3.19.56 5.89 2.64 7.04 5.69.85 2.24 1.24 6.74 1.25 9.13l.14 31.16c0 1.36 1.48 2.26 2.56 2.26l11.76-.03c.82 0 1.41-1.24 1.66-1.89.62-1.63.05-3.14.06-4.83l.03-28.45c0-1.37.15-2.55.03-3.9l-.27-3.12c-.41-4.65-1.45-8.58-4.19-12.42-.98-1.38-2.28-2.57-3.78-3.39-6.86-3.77-15.3-4.52-22.4-1.07-2.19 1.06-4.06 2.34-5.74 4.12-.47.5-1.55 1.01-2.23.67-.53-.26-1.04-1.41-1.04-2.06v-16.98l6.53-3.39c2.15-.1 2.41 3.81 4.99 3.81h11.15c.58 0 1.41-.6 1.7-.98.84-1.12-.59-5.82-.59-7.64l-.09-35.39c0-.89-.17-1.81-.23-2.71-.21-3.02-1.6-5.82-3.68-8.05-5.37-5.78-16.38-6.94-23.82-6.51-.79.05-1.4.06-2.24.03-.53-.02-1.36.2-1.96.26-6.37.58-14.22 3.2-18.17 8.42-2.01 2.65-3.39 5.65-3.64 8.87-.09 1.21 1.21 2.19 2.36 2.2l10.59.02c1.7 0 2.76-.99 3.28-2.52 1.66-4.81 4.93-5.99 9.65-6.44 2.58-.25 5.31 0 7.65 1.21 3.16 1.63 4.71 5.44 3.45 8.75-.79 2.08-2.78 3.47-4.91 3.92l-4.74 1c-1.13.24-2.39.36-3.55.49l-4.12.45-4.55.72c-2.03.32-3.8.85-5.73 1.49-4.47 1.48-8.18 4.12-10.26 8.61-.98-2.18-1.79-4.1-3.45-5.54-1.89-1.65-3.8-3.05-6.1-3.99-6.52-2.66-10.23-2.86-16.89-4.45-3.76-.89-9.95-2.49-10.41-7.07-.11-1.07.6-2.56 1.3-3.32 1.74-1.89 4.1-2.23 6.51-2.47 3.5-.36 7.96.46 10.47 3.11.63.67 2.31 4.78 4.01 4.79l10.5.1c.61 0 1.88-.37 2.12-.93 1.44-3.32-2.58-9.5-5.11-11.89-3.81-3.6-8.96-4.97-14.04-5.66-8.68-1.19-20.88-.24-27.6 6.21-2.52 2.42-3.78 5.68-4.28 9.14-.54 3.72-.62 3.49.39 7.58.46 1.88 1.55 3.6 2.87 5.03 2.7 2.91 6.45 4.29 10.23 5.33 2.5.69 4.8 1.33 7.35 1.82 2.9.55 5.68 1.38 8.55 2.2 2.01.57 3.94 1.49 5.64 2.74.97.72 1.93 2.37 2.03 3.59.14 1.68-.46 3.61-1.58 4.8-1.43 1.53-3.48 2.56-5.51 2.82-3.69.49-2.28.79-6.46.21-2.61-.36-5-1.59-7.01-3.28-2.63-2.21-2.33-6.41-5.09-6.42l-11.13-.05c-.62.42-1.29 1.14-1.73 1.67v1.92c1.09 2.51.34 1.91 1.89 5.05 1.91 3.86 4.81 7.04 8.86 8.65 2.84 1.13 5.63 2.41 8.65 2.79l4.81.59c1.95.24 3.8.18 5.74.02l2.92-.24c2.85-.23 6.53-.97 9.32-2l-.02 9.61c0 .67-.21 1.66-.3 2.29-.21 1.54-1.4 2.26-2.78 2.26h-4.11c-.74.01-2.11.67-2.35 1.4-.66 1.93-.91 7.25.3 8.52 2.15 2.26 5.64-.18 7.98 1.66.72.57 1.28 1.84 1.28 2.81l-.02 30.14c0 .77-.14 1.5-.07 2.22l.23 2.22c.44 4.34 3.23 8.25 7.53 9.81v16c0 .59-.28 1.64-.47 2.13-.59.88-1.64.45-2.32-.04-4.87-3.55-3.65-3.09-9.29-4.88-3.84-1.22-7.74-.93-11.7-.14-5.47 1.08-9.89 3.95-13.41 8.18-4.39 5.27-6.59 12.12-7 18.97-.13 2.21-.2 4.27 0 6.46.8 8.73 2.64 15.08 8.72 21.58 3.54 3.78 7.56 5.3 12.54 6.61 1.22.32 2.68.07 3.76.58h1.68c5.55-.38 10.92-1.48 15.14-5.49.48-.45 1.36-1.07 2.01-.83.86.32 1.25 1.37 1.33 2.22.12 1.26 1.07 2.41 2.41 2.4l10.41-.05c1.22 0 2.49-1.06 2.49-2.45v-69.86c1.43.07 2.71-.21 3.67-1.07 2.94 1.56 8.75.36 10.37.66v.04zm-29.78 44-.25 3.39c-.42 5.73-3.31 11.88-9.11 13.99-1.06.39-2.12.46-3.13.68-.75.17-1.55.11-2.32.06-7.35-.55-11.85-6.26-13.17-13.25-.73-3.88-.92-6.54-.33-10.53.55-3.77 1.78-7.44 4.21-10.42 3.58-4.38 10.42-4.93 15.29-3.2 1.87.67 3.45 1.96 4.65 3.44 3.24 4.02 3.91 8.37 4.18 13.42.04.82.03 1.6-.03 2.42zm5-121.7-6.53-.15c2.06-1.94 3.62-3.84 4.64-6.44.84 2.54 1.65 4.5 3.3 6.62l-1.42-.03zm15.22-16.87c1.68-2.07 3.78-3.28 6.31-3.85 1.6-.37 3.16-.72 4.8-.93 2.88-.37 5.54-.88 8.41-1.45.7-.14 1.97.15 2.18.85.72 2.41.47 4.76.11 7.18-.79 5.19-3.94 9.19-9.34 10.18h-6.77c-1 0-2.2-.54-3.05-.87-4.48-1.78-4.95-8.27-2.65-11.1zm-1.36 82.69c-2.86-.49-6.35.32-8.97-1.57-1.64-1.18-2.02-4.74-2.02-6.59v-23.63c0-1.58-.19-3.71 1.36-4.66 2.08-1.26 6.82-.3 9.64-.91v37.35h-.01zm-.01-47.77c0 .37-.85-.08-1.12-.09l-6.92-.11c-1.74-.03-2.89-1.48-2.9-3.2l-.11-13.2c2.33 1.69 4.68 3.25 7.37 3.8l3.71.75-.02 12.04h-.01z"/><path d="m214.63 174.03c-.2-3.77-1.83-9.6-3.55-12.84-1.14-2.14-3.29-5.55-5.01-7.21-3.42-3.33-7.56-5.66-12.17-6.98-6.48-1.86-15.04-1.25-21.16 1.76-6.51 3.2-10.68 7.43-14.01 13.83-1.26 2.43-2.01 4.85-2.54 7.55-.68 3.42-1.13 6.72-.75 10.21.39 3.64.57 5.32 1.68 8.9 1.42 4.57 3.47 8.03 6.87 11.36 2.47 2.42 5.09 4.35 8.26 5.69 4.21 1.78 8.38 2.51 12.81 2.74h1.92c1.04-.44 2.34-.11 3.55-.31l3.11-.52c4.24-.71 8.2-2.71 11.46-5.49 3.09-2.64 5.35-5.88 7.04-9.52.44-.94.94-2.45.17-3.25-1.34-1.39-8.2-1.07-10.47-1-.92.03-2.41.78-2.97 1.44-.96 1.14-1.62 2.26-2.75 3.06-3.08 2.2-6.28 3.29-10.08 3.28-1.83 0-4.95-.54-6.61-1.24-4.07-1.71-6.41-5.6-7.23-9.78-.24-1.23-.45-2.05.3-3.03.66-.88 1.51-1.21 2.79-1.21h35.83c.87 0 2.04-.39 2.72-.74.94-.48 1.05-1.89 1-2.82l-.21-3.86zm-17.13-4.12c-.32.62-1.65 1.19-2.48 1.19h-20.14c-.69 0-1.62-.54-2.02-.9-1.85-1.64 1.12-9.75 8.61-11.5 3.07-.72 5.99-.61 8.99.4 3.32 1.12 5.64 4 6.82 7.27.4 1.12.9 2.22.22 3.54z"/><path d="m156.57 195.33c-1.87.1-5.65-.17-7.06-1.33-1.11-.92-1.68-2.51-1.8-3.91-.06-.72-.25-1.52-.24-2.21l.04-26.64c0-1.57 1.54-2.75 2.79-2.77l6.66-.08c1.18 0 2.03-.96 2.39-1.93.29-.76.19-1.39.16-2.17l-.15-4.19c-.05-1.3-1.03-2.4-2.37-2.42l-6.34-.11c-1.65-.03-3.13-1.19-3.14-2.93l-.04-9.52 4.1.76c1.35.25 6.13.3 7.69.13 5.2-.54 8.02-1.16 12.67-3.66 3.38-1.82 5.92-4.42 8.05-7.56 1.26-1.85 2.35-3.7 3.02-5.85 1.12-3.6-5.93-2.84-8.64-3-3.03-.18-4.81 1.03-6.54 3.25-2.04 2.61-5.65 4-8.81 4.49-2.44.38-4.45.23-6.75-.26-5.87-1.27-9.02-5.73-9.85-11.55-.2-1.39.72-3.26 2.5-3.27l37.2-.06c.96 0 2.18-.63 2.62-1.18.99-1.23.39-2.56.41-3.82.04-2.41-.2-4.39-.75-6.72-1.46-6.19-4.12-12.18-8.89-16.53-6.04-5.5-13.98-7.77-22.06-7.05-5.35.47-9.58 1.79-14.02 4.75-6.58 4.38-11.3 11.31-12.81 19.12-1.39 7.19-1.09 13.26 1.21 20.29 1.56 4.78 4.46 8.71 8.4 12.05-.88.49-4.07-.41-4.7 2-.13.51-.35 1.52-.35 2.05l-.02 10.8c0 5.81-6.95 1.53-9.39 4.53-.13.48-.36 1.43-.38 1.92l-.16 4.55c-3.62-6.11-11.53-8.55-18.01-8.97l-3.23-.21c-1.96-.13-3.82-.22-5.77-.02l-4.37.45c-1.52.16-3.01.34-4.46.84l-3.61 1.22c-6.3 2.14-11.42 7.61-12.49 14.38-.2 1.24.53 2.85 1.94 2.85h11.65c1.35 0 2.07-1.07 2.47-2.17.89-2.44 2.46-4.81 5.06-5.71 3.58-1.24 7.71-1.44 11.28-.28 3.77 1.22 5.74 5.16 4.69 8.85-.55 1.93-2.14 3.41-4.11 4-2.23.66-4.51 1.1-6.87 1.51-1.62.28-3.18.24-5.38.59l-6.19.99c-3.65.58-8.38 2.25-11.31 4.6-7.24 5.81-7.02 18.31-1.67 24.47 3.16 3.64 7.8 5.58 12.57 5.88l2.22.14c3.88.24 6.76.05 10.48-.9 6.31-1.61 5.96-2.73 9.76-4.21 1.7-.67 2.46 3.72 4.67 3.71l11.76-.03c3.14 0 .76-5.96.76-8.85l-.11-36.73c0-1.24-.39-2.54-.62-3.69 2.71 1.04 5.98-.35 7.74 1.16 1.76 1.5 1.14 3.36 1.13 5.3l-.04 29.16c0 1.12.23 2.16.36 3.23.15 1.27.49 2.4 1.03 3.54 2.42 5.18 7.4 6.97 12.87 7.3 3.73.22 7.33.11 11.14.09 1.05 0 2.75-1 2.8-2.14.12-2.83.1-5.56.05-8.35-.03-1.51-1.59-2.03-2.82-1.96h-.02zm-13.93-99.93c1.02-5.26 5.23-9.02 10.45-9.73l1.73-.24c.63-.09 1.37 0 2.01.03 5.43.25 9.64 3.66 11.1 8.9.21.76.5 1.78.1 2.48-.3.52-1.14 1.38-2.12 1.38l-20.96-.02c-1.5 0-2.57-1.51-2.32-2.8zm-36.06 90.96c-.31 3.54-1.61 6.97-4.42 9.25-1.97 1.6-4.38 2.17-6.89 2.5-3.19.42-6.56-.14-9.36-1.99-2.9-1.92-4.31-8.73.57-12.13.95-.67 1.99-1.31 3.15-1.62 1.62-.43 3.2-.87 4.84-1.09 3.38-.46 6.51-1.05 9.88-1.72 2.96-.59 2.39 5.05 2.23 6.81z"/><path d="m180.13 35.48 31.05-.02c1.88.45 7.36.35 8.52-1.05.91-1.1.61-2.5.43-3.78-.16-1.19.13-2.61-.1-3.76-.68-3.42-2.02-8.76-3.65-11.68-2.05-3.68-3.43-5.79-6.58-8.53-3.67-3.2-10-6.08-14.97-6.36-5.4-.31-7.76-.28-12.89 1.12-4.75 1.3-10.06 4.82-13.26 8.53-3.07 3.56-5.52 7.67-6.61 12.27-1.3 5.5-1.56 7.83-1.14 13.46.22 2.95 1.13 6.33 2.09 9.15 1.31 3.86 3.57 7.22 6.51 10.01 2.13 2.02 4.35 3.99 7.08 5.09l3.79 1.52c1.66.67 3.52.91 5.3 1.23 3.82.68 7.64.5 11.44 0 3.03-.4 5.68-1.32 8.45-2.65 3.67-1.75 6.7-4.4 9.06-7.74 1.08-1.54 5.91-8.46 1.79-8.85-.77-.07-1.75-.34-2.47-.34h-5.6c-4.73-.02-3.68 2.17-7.28 4.75-4.42 3.16-9.21 3.58-14.41 2.37-1.95-.45-3.6-1.21-5.06-2.68-2.5-2.52-4.22-5.97-4.15-9.68.02-1.1 1.49-2.37 2.69-2.37h-.03zm-2.44-13.41c1.92-8.66 11.95-11.67 19.13-8.39 3.23 1.48 5.08 4.43 6.17 7.71.3.91.44 1.72 0 2.58-.38.72-1.31 1.2-2.33 1.19l-20.81-.03c-1.62 0-2.47-1.63-2.16-3.07z"/><path d="m110.46 12.01 1.92 6.02c.99 3.1 2.02 6.05 3.12 9.12l2.27 6.31.83 2.5 2.31 6.79 2.7 7.91 2.75 7.8c.41 1.18 1.14 2.81 2.67 2.83l11.9.14c1.59.02 3.54.33 4.63-1.29.83-1.22 1.35-2.87 1.84-4.33l2.63-7.78 2.66-7.75 4.02-11.84 7.89-23.52c.23-.7.15-1.78-.21-2.28-.31-.43-1.22-.96-1.91-.95l-10.67.03c-1.4 0-2.61 1.23-3.01 2.51l-4.11 13.12-4.49 14.45c-.57 1.83-1.8 7.94-3.65 7.52-.27-.06-.86-.41-.96-.67-1.52-3.97-2.69-7.82-3.94-11.91l-6.6-21.64c-.6-1.95-1.58-3.39-3.9-3.39h-11.04c-.71 0-1.62.54-1.93.96-.32.44-.44 1.47-.26 2l2.5 7.35h.04z"/></g></svg>