<svg viewBox="0 0 490.19 242.53" xmlns="http://www.w3.org/2000/svg"><g fill="#adff00"><path d="m192.22 175.59c0-6.61-5.9-10.02-15.86-10.02-10.83 0-17.97 4.07-18.45 12.56h6.61c0-5.56 4.55-8 11.69-8 6.28 0 9.39 1.96 9.39 5.8 0 10.3-28.66 6.66-28.66 21.81v2.68h35.04v-5.03h-27.51c1.87-9.01 27.75-6.09 27.75-19.79z"/><path d="m222.37 165.53c-11.79 0-18.5 7.24-18.5 17.88s6.71 17.97 18.5 17.97 18.55-7.38 18.55-17.97-6.76-17.88-18.55-17.88zm0 30.33c-7.29 0-11.69-4.6-11.69-12.46s4.41-12.37 11.69-12.37 11.74 4.6 11.74 12.37-4.41 12.46-11.74 12.46z"/><path d="m287.17 175.59c0-6.61-5.9-10.02-15.86-10.02-10.83 0-17.97 4.07-18.45 12.56h6.61c0-5.56 4.55-8 11.7-8 6.28 0 9.39 1.96 9.39 5.8 0 10.3-28.66 6.66-28.66 21.81v2.68h35.04v-5.03h-27.51c1.87-9.01 27.75-6.09 27.75-19.79z"/><path d="m319.81 176.98c-4.79 0-9.44 1.05-12.46 2.73l1.72-8.24h23.48v-5.08h-29l-3.26 16.97 6.28 1.44c4.07-2.59 7.53-3.74 11.41-3.74 5.94 0 9.49 2.59 9.49 7.19 0 4.98-4.07 8.05-10.93 8.05-6.13 0-10.02-2.35-10.93-6.66h-7.05c.86 7.43 7.48 11.74 18.21 11.74s17.73-4.94 17.73-13.08c0-7.29-5.42-11.31-14.71-11.31z"/><path d="m343.5 140.18c-23.61-9.9-54.2-15.77-87.06-16.83.03-.03.05-.06.08-.09 4.37-5.39 3.35-11.51 4.37-18.07 0-2.19-1.02-3.35-1.02-4.81.44-7.87.44-14.87.44-22.59-.44-7.14.58-13.7 0-20.7-.44-2.92-.44-6.56 3.21-7.72 1.75 0 3.94 1.17 5.1-1.02 1.02-4.37 7-10.49 1.46-12.68-2.19-1.17-5.39.58-7.58-1.17-3.35-2.62-1.6-7.43-1.6-11.37 0-1.75.44-3.21 2.19-3.94 2.19 0 3.79 2.92 5.98 2.92 6.12 1.46 6.56-7.72 9.33-12.1-3.94-4.37-9.77-8.31-15.3-9.33-4.96 6.56-13.7 8.31-20.26 13.12-.44 1.02-1.6 2.19-1.17 3.94 1.75 5.39 3.35 11.37 1.75 16.76-1.75 5.1-6.56 9.47-6.56 14.28 0 2.77 5.98 2.19 5.98 5.39 1.02 7.29 1.02 14.28 1.75 21.43 0 1.6-.73 2.62-1.17 4.37 0 2.62 1.17 5.98 1.17 8.75-.73 7.73 1.02 15.3-.73 23.61-.62 3.7-1.1 7.29-1.57 10.87-35.72.35-69.22 6.34-94.64 16.99-26.78 11.22-41.53 26.37-41.53 42.66s14.75 31.44 41.53 42.66c26.19 10.98 60.97 17.03 97.93 17.03s71.74-6.05 97.93-17.03c26.78-11.22 41.52-26.37 41.52-42.66s-14.75-31.44-41.52-42.66zm-1.64 81.41c-25.69 10.77-59.88 16.7-96.29 16.7s-70.61-5.93-96.29-16.7c-25.1-10.52-38.93-24.28-38.93-38.75s13.82-28.23 38.93-38.75c24.78-10.39 57.48-16.25 92.45-16.66-.45 3.47-.93 6.96-1.53 10.54 0 .58 1.46 1.75 2.19 1.02 3.58-3.58 6.91-7.48 10.43-11.52 33.68.73 65.08 6.56 89.05 16.61 25.1 10.52 38.93 24.28 38.93 38.75s-13.82 28.23-38.93 38.75z"/><path d="m58.16 46.59c-3.21-7-11.95-8.75-18.07-13.12-6.56 1.02-9.18 8.31-15.3 10.49-2.19.44-3.79-2.19-2.62-3.93 5.83-9.18 9.77-19.09 12.39-30.03.73-2.77 0-5.39-1.02-8.31-1.6-3.21-4.81-1.17-7.73.44-8.76 6.12-13.13 13.41-22.89 17.05-2.62 1.17-.73 3.94-.44 6.12.44 7.73 1.46 14.72 1.46 22.3s-.44 14.87 0 21.86c.73 3.93 0 7.72 0 11.66 0 2.19 0 4.81-1.02 7-1.17 1.75-3.79 3.93-2.62 4.96 6.56 6.56 14.58 9.91 22.3 15.3 6.12-.44 10.49-4.81 15.89-7.58 2.62-1.17 5.54-3.93 8.16-5.54 1.75-.58 3.94.44 6.12 0 1.02-.58 2.19-1.75 2.19-2.77-.73-13.12-1.75-25.65-.73-38.77 0-2.77 5.1-5.39 3.94-7.14zm-33.38-39.36c.58-.44 2.19 0 2.77 1.02.44 3.93-.58 7.72-1.02 11.66-.87 4.81-1.75 9.18-3.94 13.56h-1.6c0-8.75-2.77-19.09 3.79-26.24zm11.95 63.41c.73 7.14 1.17 14.87-1.46 21.43-5.1 0-8.31-3.93-13.12-5.1-1.75-.44-1.75-3.21-1.75-4.37 0-10.2 0-20.7 1.75-31.05.44-.58.44-2.19 1.46-2.19 5.54-.58 12.1 1.17 14.28 5.98 2.19 4.96-1.6 9.77-1.17 15.3z"/><path d="m106.69 93.52c-2.19-.44-4.81 1.75-7 1.17-5.54-1.6-10.49-3.35-15.3-4.81-3.35-1.17-5.1-5.1-3.94-8.31 1.02-1.6 3.21-1.6 4.96-2.62 7.73-7.72 15.74-13.12 21.86-22.59.44-1.46-1.31-3.06-2.19-4.37-6.12-7-11.95-13.56-18.51-19.68-7.29 3.94-12.1 9.91-19.68 12.68-1.75.44-2.19 2.19-2.92 3.79-1.02 7.58.73 14.87 0 22.45-.44 8.75 1.75 18.66-2.62 26.67 0 .73.44 1.75 1.17 2.48 2.62 1.46 5.39 1.02 8.02 1.46 7.73 2.19 13.85 6.12 21.43 8.31 5.98-3.93 10.35-9.33 15.74-14.43.73-.44-.44-1.46-1.02-2.19zm-26.23-39.35c.58 0 1.75-1.02 2.19-.44 2.77 3.35 7.14 5.54 7.58 9.91.73 5.39-4.37 8.02-7.58 11.95-.44 0-1.6 0-1.6-.58 0-7-2.19-13.56-.58-20.84z"/><path d="m111.06 101.1c3.21 6.12 10.2 4.37 15.3 8.31 1.31.44 3.35 1.17 4.96.44 4.08-2.19 7.58-5.39 11.51-7.58 2.04-.44 4.08 0 6.12 1.02 2.92 1.75 4.96 7.29 7.58 6.56 4.52-1.46 8.45-7 12.1-11.95.44-.87-.58-1.89-.58-2.33-1.46-2.19-4.96-3.35-4.96-6.12-1.6-8.16-2.04-16.47-1.6-24.63 0-5.1-.44-9.91 1.17-14.87.44-1.6 2.33-3.06 2.92-4.96.44-1.75-.87-2.92-2.04-3.35-9.04-.58-17.78-4.37-25.8-9.33-8.45 5.39-16.18 11.52-25.07 17.2-.44.44-1.17 2.19-.44 3.21 2.33 4.81 2.33 9.91 2.04 15.3-.73 8.89.87 17.64-.73 26.38-.44 2.62-3.35 4.96-2.48 6.7zm20.7-51.16c4.66-.44 8.02 1.75 12.68 2.77 1.02.44 2.48 1.6 3.06 2.62 1.02 12.68 0 24.92-1.02 37.31 0 1.17-1.6 2.19-2.62 2.92-5.39.44-13.12-1.17-14.14-7.73-.44-2.77 0-5.39 0-8.31-1.02-8.16 1.46-16.76-.44-24.63-.58-2.19.44-4.37 2.48-4.96z"/><path d="m178.84 94.25c-.58 4.37-5.39 6.12-6.12 9.91 5.1 3.21 10.93 3.94 16.03 7.58 2.19 1.17 4.81 2.19 6.56.73 4.37-3.35 7.58-6.56 10.2-10.93.73-1.17 0-2.19-.44-3.35-2.77-2.19-6.12-3.21-7.14-6.56-1.6-3.93-1.6-8.31-1.6-11.95.44-8.31 0-16.03 1.6-24.05.58-3.35 5.39-1.17 8.31-2.91 3.64-1.46 1.02-7.58 2.19-11.37 0-.58-.73-2.19-1.75-2.19-3.35-.58-7 1.17-7.72-2.19-1.02-2.77-.58-6.12-1.02-8.75-.44-3.94 2.77-7.14.58-10.93-.58-1.02-2.19-.58-3.21 0-4.37 3.79-9.47 6.56-14.28 10.35-.58.58-1.02 1.75-1.02 2.19-.73 3.21 0 6.12 0 9.33-.73 4.81-6.56 7-7.29 12.1 0 .44 1.17 1.46 1.75 1.46 2.62 0 5.54.73 5.54 3.35 1.02 6.56 0 13.12 0 19.68 0 6.12-.73 12.68-1.17 18.51z"/><path d="m281.44 101.1c3.21 6.12 10.2 4.37 15.3 8.31 1.31.44 3.35 1.17 4.96.44 4.08-2.19 7.58-5.39 11.52-7.58 2.04-.44 4.08 0 6.12 1.02 2.91 1.75 4.96 7.29 7.58 6.56 4.52-1.46 8.45-7 12.1-11.95.44-.87-.58-1.89-.58-2.33-1.46-2.19-4.96-3.35-4.96-6.12-1.6-8.16-2.04-16.47-1.6-24.63 0-5.1-.44-9.91 1.17-14.87.44-1.6 2.33-3.06 2.92-4.96.44-1.75-.87-2.92-2.04-3.35-9.04-.58-17.78-4.37-25.8-9.33-8.45 5.39-16.18 11.52-25.07 17.2-.44.44-1.17 2.19-.44 3.21 2.33 4.81 2.33 9.91 2.04 15.3-.73 8.89.87 17.64-.73 26.38-.44 2.62-3.35 4.96-2.48 6.7zm20.7-51.16c4.66-.44 8.02 1.75 12.68 2.77 1.02.44 2.48 1.6 3.06 2.62 1.02 12.68 0 24.92-1.02 37.31 0 1.17-1.6 2.19-2.62 2.92-5.39.44-13.12-1.17-14.14-7.73-.44-2.77 0-5.39 0-8.31-1.02-8.16 1.46-16.76-.44-24.63-.58-2.19.44-4.37 2.48-4.96z"/><path d="m368.9 45.71c-1.75 1.17-2.19-1.75-3.21-2.77-2.92-3.79-6.56-7-11.66-8.16-4.37 4.81-10.2 9.91-10.2 15.74 0 1.75 4.81 2.92 4.81 5.1 2.19 14.14 2.77 24.78-1.17 38.62-.44 2.19-4.37 3.64-4.37 6.56 0 1.02 1.75 2.19 2.92 2.19 7.43 0 10.06 4.66 16.91 6.41 8.31 1.02 13.12-7 18.07-12.53.44-1.02 0-3.21-1.02-2.77-7.29 1.02-9.91-1.17-15.74-3.35-1.17-.44 1.89-2.04 1.46-3.06-2.19-9.77-.87-18.51-.73-27.69 0-2.19 1.17-6.56 4.37-4.37 4.37 2.19 5.1 7.58 7.29 11.95.44.44 2.19 1.17 3.21.44 4.37-4.37 8.16-10.2 8.75-15.74 0-5.39-3.94-11.51-7.58-16.32-5.54.44-7.73 7.58-12.1 9.77z"/><path d="m489.43 95.42c-5.54-2.62-7-8.75-7-14.28 1.02-9.18-1.17-18.95 2.19-28.42 1.02-3.21 7-8.02 2.19-10.2-5.54-2.91-10.49-6.12-15.3-7.72-7.29-2.19-9.91 9.18-16.47 11.37-2.92-.44-3.35-.29-4.23-1.75-2.92-3.5-12.1-12.24-16.47-9.18-6.12 3.21-8.31 8.75-14.87 10.49-1.17.44-1.75-2.19-2.91-3.94-2.19-3.64-7-8.02-10.93-5.83-5.39 2.62-9.77 7.58-13.56 12.39-.58.73.44 1.75.44 2.19 2.19 2.92 6.56 3.35 6.56 6.56 1.17 8.31 2.92 16.03 1.75 24.05-1.02 4.37.44 8.75-1.75 13.12-1.02 1.17-2.19 2.92-2.19 3.94-1.02 5.98 6.56 8.16 9.91 12.53 6.12-1.17 10.93-5.98 14.87-10.35v-2.19c-1.75-1.75-3.35-3.21-4.37-5.39-1.75-5.1-.73-10.49-1.17-15.3-.58-5.54.29-10.93-.58-16.47-.44-3.94-.44-8.75 3.94-8.75 5.39 0 14.58.44 14.58 7.73 0 11.37 1.17 22.88-1.46 34.25-.73 2.92-3.35 5.54-1.17 7.29 4.37 3.64 7.72 9.18 13.12 10.2 3.94-4.37 10.49-6.56 11.66-11.95.44-3.35-4.37-4.81-5.1-8.16-2.62-8.75-2.19-18.07-2.19-27.26 0-2.92-.44-6.12 1.17-8.75 3.21-4.37 9.77-1.75 14.87-.73 1.02.73 2.19 1.75 2.62 2.92.58 8.02-1.17 16.32-1.17 24.49 0 3.21 0 7.14-.44 10.49 0 1.46-1.75 3.21-2.77 4.81-.44 1.75.58 2.77 1.02 3.94 4.37 3.64 8.31 10.93 14.28 9.77 5.39-1.75 7.58-8.31 11.51-13.12.44-1.02 0-2.19-.58-2.77z"/></g></svg>