<svg viewBox="0 0 192 192" xmlns="http://www.w3.org/2000/svg"><path d="m0 0h192v192h-192z" fill="#adff00"/><g fill="#42195f"><path d="m75.54 75.26s-12.19-15.34-42.09-16.01v36.29c5.73-2.51 11.33-5.14 16.63-7.89 0 0 20.57-13.2 25.46-12.39z"/><path d="m152.05 107.35c-4.33-6.05-10.01-10.32-17.03-12.8l-3.3-1.24c6.33-2.06 11.35-5.99 15.07-11.77 3.44-5.37 5.16-11.49 5.16-18.37 0-6.19-1.52-12.11-4.54-17.75-3.86-7.15-9.91-12.66-18.17-16.51-7.3-3.44-15.41-5.16-24.36-5.16h-71.43v31.25c10.97-4.33 31.7-7.68 55.83 12.3 0 0-8.25-16.8-17.05-24.25s-3.31-11.14-3.31-11.14 3.28 5.24 10.02 9.59c0 0 20.25 14.84 28.85 32.3 0 0 16.76-2.14 22.06-8.39l.27 1.34s-5 10.78-12.37 14.9c0 0 4.35 2.56 1.95 12.4s13.33 33.32 13.33 33.32 6.44 10.59 4.08 16.13c-2.36 5.53-8.73 9.03-19.41 5 0 0-31.99-8.36-37.26-16.25 0 0-8.98-1.41-17.36 7.99 0 0-15.59 14.11-21.98 18.07 0 0-3.06 2.62-7.64 6.92v3.01h76.58c13.21 0 24.36-3.37 33.44-10.12 10.04-7.43 15.07-17.55 15.07-30.34 0-7.57-2.17-14.38-6.5-20.44z"/></g></svg>