<svg viewBox="0 0 732 740" xmlns="http://www.w3.org/2000/svg" preserveAspectRatio="meet"><path d="m548.99 317.83c12.9 20.37 33.3 36.31 45.62 57.74 3.95 6.87 12.6 22.45-.9 23.91-7.3.79-10.61-4.47-17.78-2.81-4.9 1.92-7.44 6-9.45 10.51-3.51 7.88-5.51 17.39-9.05 25.9-17.38 41.8-48.13 87.96-84.74 114.99-99.84 73.68-235.35 33.09-285.79-77.35-7.8-17.07-11.04-33.6-16.85-51.06-1.24-3.74-2.34-10.37-6.79-11.2-8.38-1.75-7.19 5.48-10.91 10-5.29 6.42-17.65 8.1-19.11-2.01-1.79-12.46 16.71-48.79 24.15-59.85 3.56-5.3 13.61-18.61 20.02-19.03 6.59-.4 10.75 5.65 11.11 11.7.19 3.18-1.6 6.41-1.64 9.64-.82 59.67 23.8 121.77 73.48 156.21 90.99 63.07 206.37 30.86 252.83-68.37 12.34-26.35 29.44-80.01 19.16-107.76-1.19-3.22-4.2-6.24-4.81-9.17-1.33-6.37-.16-15.63 7.32-17.22l14.16 5.23z" fill="#acfe02"/><path d="m286.34 157.02c31.49-5.76 36.72 45.12 35.21 66.16-1 13.87-4.08 32-19.16 36.76-43.71 13.81-52.07-78.68-22.68-99.58 2.02-1.44 4.13-2.89 6.63-3.34z" fill="#acfe01"/><path d="m433.17 152.06c37.67-5.33 41.14 67.8 29.02 89.94-9.91 18.1-34.67 13.71-45.2-1.38-8.78-12.59-8.93-49.01-4.86-63.65 2.51-9.04 10.97-23.48 21.03-24.9z" fill="#acfe02"/><path d="m612.98 583.45c18.22-.7 21.24 14.98 17.44 29.5-8.46 32.34-50.47 66.5-82.92 71.87-16.95 2.8-38.06-.51-32.71-22.73 6.57-27.25 70.34-77.58 98.19-78.65zm0 4c-25.43.98-80.37 45.78-91.51 68.35-12.67 25.65 10.05 28.18 29.78 23.79 26.37-5.86 55.34-28.98 68.42-52.41 6.76-12.11 16.96-40.64-6.69-39.73z" fill="#b1fe11"/><path d="m653.84 186.98c19.52-3.57 38.02 18.48 47.01 33.41 12.5 20.75 20.99 50.34 17.03 74.57-4.26 26.08-20.63 36.37-40.32 14.63-18.53-20.46-38.86-76.02-36.47-103.41.64-7.4 4.65-17.72 12.76-19.2zm-.02 3.98c-3.49.79-5.84 4.83-7 7.98-8.84 24.12 15.62 85.11 31.27 105.13 17.19 21.99 32.13 15.18 35.92-10.98 3.32-22.96-4.72-50.65-16.55-70.3-7.92-13.16-26.18-35.77-43.64-31.83z" fill="#b1fe10"/><path d="m345.32 1.29c18.96-.96 41.26 1.91 57.8 11.52 23.62 13.73 21.62 31.94-3.4 41.88-25.81 10.25-86.08 13.61-110.79.42-17.47-9.32-12.81-24.26.16-35.16 14.36-12.06 37.8-17.72 56.24-18.66zm-60.36 46.3c12.07 12.98 58.04 12.9 75.04 11.32 15.59-1.45 77.4-11.28 48.46-37.45-19.43-17.57-58.96-18.85-83.27-13.34-13.37 3.03-46.14 15.64-43.54 33.26.55 2.05 1.9 4.7 3.32 6.22z" fill="#b0fe0f"/><path d="m130.56 605.42c22.21-3.76 62.53 21.91 79.63 35.74 12.68 10.27 48.47 43.13 20.18 56.07-36.62 16.75-116.3-35.43-113.56-76.61.53-8.01 5.83-13.86 13.76-15.2zm-6.39 7.09c-7.04 7.04-1.48 21.74 2.49 29.29 14.08 26.74 51.6 51.3 81.68 54.14 16.29 1.53 35.38-3.55 25.53-23.53-11.66-23.64-74.24-65.38-100.59-63.26-3.01.24-6.92 1.18-9.11 3.37z" fill="#b1fe10"/><path d="m49.67 213.95c10.67-1.82 17.76 1.96 21.28 12.2 8.98 26.11-9.59 92.28-27.03 113.87-17.29 21.4-33.47 10.34-39.64-12.25-7.7-28.2 1.4-65.82 17.46-89.82 5.58-8.33 17.67-22.26 27.93-24zm1 4c-8.21 1.43-18.69 12.82-23.54 19.4-16.91 22.93-25.45 58.26-19.68 86.25 2.95 14.29 12.99 33.24 28.99 18.94 19.82-17.71 41.03-94.58 29.34-118.21-3.34-6.75-7.91-7.62-15.12-6.37z" fill="#b1fe11"/><path d="m462.37 44.95v1.47c5.06 3.76 5.33 10.7 1.45 15.45-8.52 10.44-25.64-.26-36.4-.96-.39-1.77.51-1.98 1.65-2.83 1.29-.97 10.8-6.15 11.86-6.13 2.9 1.5 15.19 13.86 17.34 7.31-.36-6.78-2.95-12.26-.73-19.15l3.83-2.16-5.82-.18-8.16-14.8 3 10.98c-4.67-4.54-9.12-7.51-15.87-8.08l.98-8.82c1.03-.87 22.06 4.26 24.87 5.43 11.32 4.72 15.27 18 2.02 22.46z" fill="#aefe0a"/><path d="m495.32 661.11-6.42 14.05c-3.39 2.63-17.26-1.15-18.47 2.54-1.76 5.35 15.43 11.9 9.92 20.35l5.33-1.83 16.64 6.82-9.99-6.97c6.96 1.96 11.22.05 17.38-2.93l3.52 8.81c-10.15 2.84-28.22 16-37.41 6.14-4.08-4.38-2.83-10.15-.46-15.01-13.77-2.25-14.43-16.53-2.68-23.16 2.07-1.17 21.8-9.67 22.64-8.8z" fill="#aefe08"/><path d="m102.86 608.18c.14 2.93-4.56 8.77-6.98 7.55-1.19-.61-15.39-17.59-16.43-19.59-5.9-11.24-.26-20.47 12.43-18.91-1.03-12.74 11.03-18.27 20.99-10.51 2.34 1.82 13.33 14.38 15.01 16.95.8 1.22 1.23 1.99.94 3.54l-16.82-3.15c-.6-5.28-1.58-12.22-5.83-15.72-4.33-1.12-6.57 9.02-8.88 11.81-2.06 2.48-5.4 3.93-8.43 4.57l3.86 3.18c-.6 5.61-3.26 10.68-.84 16.29l2.48-8.98 6.52 12.48c.61.39 1.28.42 1.97.5z" fill="#affe0a"/><path d="m57.92 197.73c-1.4-.9-6.94-.88-8.56-4l-.03-1.99c4.63-6.99 11.62-23.95 20.3-25.73 7.65-1.57 14.22 2.85 14.26 10.76 11.39-4.22 20.81 3.69 17.19 15.7-.62 2.04-12.54 21.66-13.71 22.24-2.13.51-1.85-2.4-2.16-3.81-.89-4.06-1.5-8.31-1.36-12.49 2.96-1.64 17.27-8.75 12.02-13.16-3.26-2.74-13.16.06-17.68-5.77-1.31-1.69-.43-4.46-2.28-4.71l-1.22 5.78-14.76 3.21 8.97 1.97c-5.56 1.27-11.53 5.69-10.98 12zm.99-12.97h-1.99v.98h1.99z" fill="#aefe09"/><g fill="#affe0a"><path d="m229.69 50.93c1.42-7.77 4.05-11.5 11.96-7 2.62-8.23 6.15-7.84 13.35-5.06l4.07-5.99 10.16 1.01c.12 6.94 0 18.03 7.26 21.2l.15 1.23c-.76 5.23-4.08 8.98-8.99 5.07-3.83-3.05-2.38-18.59-7.51-19.5l-3.55.49c-2.47 6.58 2.58 14.37 7.07 18.99l-2.44 4.62c-2.79 2.27-5.75-.29-8.39-1.23l-4.63-17.84-5.93-.08c-2.47 1.79 4.07 16.68 7.46 17.77-.15 6.5-4.73 9.95-9.54 4.3-.38-3.99-3.19-14.37-5.99-16.99-1.79-1.67-3.6-.6-4.5-.98z"/><path d="m275.74 685.2 6.18-2 3.64 5.38c-2.91 6.66-7.46 15.12-3.03 21.84-5.16 5.59-9.69 6.61-12.49-1.45-7.46 3.15-9.47 2.97-14.07-3.82l-8.59 1.75-5.6-7.14c3.03-3.6 6.77-10.02 7.48-14.67.62-4.03-2.18-8.84 4.37-10.63 2.93-.8 5.77 4.04 5.8 6.3.03 2.44-8.1 13.28-6.67 17.61l5.26 2.61 1.44-1.62c2.02-6.02 4.12-10.79 2.63-17.29 4.9-5.17 9.04-3.5 10.33 3.31-3.55 5.24-11.2 21.12.25 20.23 1.73-6.75 4.52-13.45 3.07-20.43z"/><path d="m628.14 144.8c-3.14.39-6.16 3.12-9.98 1.99l.5-7.98-10 9 1.53 6.46c.69 3.22-7.16.83-8.77.28l-3.24-10.75c7.27-.13 14.23-6.92 15.47-14l8.36-.84 1.14 7.85h6c.14 2.7-.53 5.36-1 7.98 2.11-.26 8.39.25 9.54 1.96l-.13 7.07c8.78 1.63 9.69 3.35 8.98 12.02 7.62.86 11.32 4.75 8.62 12.46-6.49.99-16.57 5.38-17.49 12.45-1.81 2.54-12.46 1.47-8.61-6.62l15.17-9.8.93-2.1c-1.23-12.08-15.29 3.38-17.63 8.45l-6.24-1.05.34-7.92 15.08-9.95c1.07-2.67-.82-6.38-4-6.03-1.69.18-12.74 9.73-12.68 12.87l-7.88-1.5.47-6.4c4.07-.72 14.15-8.09 15.34-11.66.5-1.51-.02-3.03.2-4.25z"/></g><path d="m661.06 553.27.6 10.04-6.14 1.86-.32 8.64-8.68 3.36.45 7.33c-.68 2.35-7.98 5.85-9.72 4.59-2.43-6.69-10.54-13.61-17.99-12.97l-1.16-8.22c.39-1.65 6.37-2.2 8.03-1.15.78.49 1.2 2.13 2.11 2.88 1.81 1.48 9.4 8.16 10.59 8.48 2.6.7 7.2-4.05 4.26-6.35l-16.51-8.45-.32-6.94 7.2-.99c2.19 2.67 11.23 10.64 14.23 10.9 1.8.16 5.07-2.14 5.34-3.67.41-2.34-14.37-11.28-17.79-9.46l-.11-8.38 5.3-1.34c5.74 4.9 12.37 12.51 20.64 9.85z" fill="#aefe0a"/><path d="m18.03 366.56-.85 4.67 1.45 2.11c4.11.06 8.73.55 12.78.1 3.75-.42 6.33-4.66 10.07 1.08l-3.23 7.02-20.02.19-.82 5.82c1.95 2.72 17.36-.92 20.85-1.95 3.82 2.04 5.19 7.36.66 9.39-1.84.82-8.75-.72-12.32-.38-4.82.45-6.87 2.22-11.06 3.92-6.31-3.03-7.46-6.95-1.79-11.53l-4.29-5.54 4.42-10.31-4.87-6.11 3.95-8.09c3.61.56 5.34 2.23 9.47 2.6 2.58.23 6.38.17 8.97-.09 2.06-.21 3.51-2.14 5.82-1.8 6.69 1 5.49 8.25.03 10.67l-19.22-1.78z" fill="#aefe09"/><path d="m723.86 392.63 7.14 15.81c-7.12.87-11.99-4.56-17.97-6.98l3.83 8.33-6.48 7.54c-5.48-3.65-12.36-3.71-18.84-3.89l-2.04-.96-4.4-12.54 6.97-9.03c1.82-.91 3.52 1.32 5.52 1.51 8.73.82 17.58.54 26.26.21zm-31.81 12.81 14.42 2.03c11.23-7.37-5.74-8.34-11.76-8.05l-2.67 6.02z" fill="#affe0b"/><path d="m98.85 141.81 1.11-8.89 9.93-1.65c2.31 7.03 9.46 9.77 13.83 15.18l-4.12 14.12-11.05 2.25c-6.1-7.78-15.04-14.11-23.48-19.19l2.34-16.78c5.27-1.57 8.25 12.73 11.44 14.97zm17.98 10.97c.11-5.42-6.71-6.83-8.97-11.49-2.92-1.68-8.68.58-6.07 4.04 5.05 4.08 7.52 11.1 15.03 7.44z" fill="#affe0c"/><path d="m441.44 731.98 1.95-17.94-6.51 5.04-9.04-3.04-2.29-21.86 11.3-8.06 10.08 3.9 6.96 31.97c-4.58 3.01-6.27 10.88-12.46 9.98zm.96-20.94-2.16-14.33-6.83-2.65c.21 3.53.25 15.69 3.65 16.81l5.33.17zm2.98 6.99c-2.68-2.57-2.15 6.52-1.98 7.48.31 1.71 1.07 2.8 2.98 2.5l-1.01-9.98z" fill="#aefe09"/><path d="m86.84 550.21c-9.84 1.71-18.59 10.12-26.56 15.87-2.83-1.67-14.73-4.64-15.32-7.37-.89-4.12 15.18-5.35 17.96-5.47l-6.5-3.97-.78-8.74 18.94-10.12 11.82 6.84.44 12.95zm-7.95-11.94c-.87-.85-12.96 4.63-13.98 5.49-2.08 1.73-1.64 8.52 2.27 7.34l11.55-5.99zm-18.97 16.99c-2.53-.3-4.69.66-6.96 1.53-1.62.62-4.69 1.01-4.02 3.44 4.24.6 8.4-1.66 10.98-4.98z" fill="#aefe09"/><path d="m503.31 43.94c-.65.6-3.72 4.33-2.99 4.99l7.95-1.53c2.33 2.16 5.87 5.24 4.87 8.8l-8.94 17.64-14.61.42-6.3-10.69c6.39-6.74 8.52-18.64 11.49-27.65l16.51-2.96c1.49 6.67-4.63 7.91-7.99 10.98 1.16-3.08 4.39-5.34 3.99-8.98-4.13.23-4.97 5.44-6 8.47l2.01.51zm-4.89 7.06-6.07 13.44c5.72 11.28 8.07-3.52 11.76-8.17l-1.85-3.79z" fill="#aefe09"/><path d="m697.04 506.33-4.33-.92-4.08 3.87c-3.1-2.02-3.83-4.18-3.69-7.82-11.86-5.42-28.04-6.5-31.82-21.09 1.04-1.02 11.07 5.66 12.98 6.49 3.49 1.51 13.6 5.4 16.92 6.06s5.89-.62 7.43-.34c1.64.3 3.75 4.19 5.68 5.19 2.06 1.08 4.83.89 6.94 2.05 1.23 1.04 2.21 11.34 1.06 13.06-2.95 4.41-7.42 4.23-8.9-1.22l1.83-5.32z" fill="#affe0a"/><path d="m339.38 717.88c.7-1.09.74-21.75 1.6-25.87.99-4.74 4.82-8.17 8.53-10.93-.94 10.85-3.24 22.57-2.06 33.52.31 2.85 1.98 4.72 2.04 5.92.09 2.1-2.5 3.76-2.92 6.03-.46 2.48.38 5.29-.17 7.82l-1.55 1.45c-4.62 1.17-6.99 4.6-12.04 2.42-4.15-1.79-3.39-5.82-.24-7.79 1.76-1.1 5.08 1.82 5.92-1.01 1.49-5.03-4.5-4.17-4.92-5.97-.58-3.84 5.46-5.04 5.83-5.6z" fill="#affe0b"/><path d="m64.91 454.37c-5.24 1.12-10.56 1.44-15.8 2.68-3.36.79-16.41 4.16-18.5 5.47s-1.23 3.77-2.2 3.92c-6.09-2.1-9.91-.37-15.71.79l-7.76-7.55c.08-5.82 2.56-9.6 8.63-6.35l-.06 5.05 5.35-1.14c-.6-7.79 4.39-7.35 7.77-1.81 12.4-1.5 27.96-12 38.28-1.08z" fill="#aefe09"/><path d="m557.24 129.82c-1.35-1.23 10.22-11.47 11.49-12.96 1.85-2.16 10.56-13.27 11.03-14.97.37-1.36-.72-3.04-.12-4.02.83-1.36 4.77-1.84 6.62-3.43s2.39-4.23 3.92-6.13c8.64-1.75 22.3 7.25 8.64 11.47l-3.15-3.89-3.43 3.61 2.46 5.39-8.52 1.41c-8.44 8.91-14.87 24.23-28.96 23.53z" fill="#affe0a"/><path d="m173.78 64.94 1.07 4.88 6.44.03c2.13 3.38-1.78 5.72-1.16 8.05 1.46 5.46 12.42 16.53 14.13 22.92 1.19 4.45-.18 7.69-.53 12.02-2.35.5-1.6-.34-2.23-1.29-4.66-7.07-7.3-15.88-13.31-23.61-2.2-2.83-4.33-6.76-8.38-6.1.65-6.15-1.71-9.65-5.94-13.58 3.59-5.76 4.52-14.68 13.44-10.41v6.13s-3.53.95-3.53.95z" fill="#affe0a"/><path d="m315.45 690.2 2.81 3.75 6.63-2.7 7.68 5.27-3.17 22.35-11.33 5.09-11.54-5.51c2.81-7.69 4.21-15.62 2.29-23.77 1.03-1.77 4.48-5.74 6.63-4.48zm2.15 6.88-2.9 16.25 6.29 3.65 2.57-16.42-1.57-2.41-4.39-1.06z" fill="#aefe09"/><path d="m704.88 439.57 4.96 13.19-7.35 10.61c-7.26-4.02-15.88-6.62-24.22-5.16l-2.27-5.3 3.97-4.11-1.88-6.85 3.99-6.1zm-1.84 7.83-16.42-3.02-3.06 2.01-.57 3.4c7.54 2.15 18.52 9.73 20.04-2.39z" fill="#aefe0a"/><path d="m653.11 524.29c-.62-1.65-2.77-6.73-1.92-7.91l4.81-1.19c-.48-6.59.11-10.02 5.74-13.8l20.87 9.88 2.21 12.41-9.34 9.56c-7.01-4.7-13.39-10.82-22.37-8.95zm25.96-6.98c-5-.01-13.7-8.16-17.98-5.52-1.96 1.21-2.57 3.78-.36 5.37 5.27 3.81 16.83 11.11 18.34.15z" fill="#aefe09"/><path d="m608.03 112.99 5.09 13.8c-5.84.46-10.82 7.02-13.79 11.71-2.27 3.58-.92 6.76-8.22 4.89l-1.87-6.12-6.8-1.7-3.18-8.66c6.53-2.09 11.24-10.13 14.91-15.63l13.85 1.71zm-17.82 21.82c2.22 1.51 11.92-7.82 13.23-10.26 1.85-2.96-1.01-5.49-2.77-7.71l-10.97 11.01z" fill="#aefe0a"/><path d="m150.57 130.6-8.67 2.15c-2.27-6.64-8.18-12.42-13.9-16.09l3.85-14.26 11.43-4.53c2.59 6.24 6.79 11.63 12 15.99 2.86 2.39 6.39 1.04 4.07 8.05l-6.16 1.82zm-13.02-22.56c-.76.15-1.46.56-2.13.93l-1.56 2.31 11.65 12.42 4.84-1.83-.05-2.99c-4.23-3.54-6.02-12.2-12.74-10.83z" fill="#aefe0a"/><path d="m207.71 57.92c-.25 7.69 4.52 16.17 10.82 20.57l-2.45 6.35-5.36-.5-4.65 6.39-8.29.11c1.3-5.19-10.31-17.18-9.89-20.18l5.84-11.25 13.99-1.49zm-12.97 9c-.74 1.08 6.69 15.52 9.5 16.01 9.55 1.68.43-12.06-1.46-15.57-2.24-2.64-5.23-1.14-8.04-.44z" fill="#affe0a"/><path d="m523.29 84.89c4.64-1.6 9.56-11.82 10.03-16.93l13.23-.92 8.74 9.4-.13 1.86c-6.22 5.02-10.59 12.62-11.54 20.62l-6.76 1.02-2.58-5.65c-8.48 2.05-10.01-2.27-10.99-9.41zm10.24 5.73c.57.59 1.61.82 2.4 1.08l9.94-12.78c1.06-2.26-5.02-7.89-6.6-5.31-.69 4.48-9.92 12.73-5.74 17.02z" fill="#aefe09"/><path d="m404.36 717.89-10.54 7.92-12.35-2.79c.82-7.98 1.17-17.07-2.81-24.31l5.18-5.58 4.13 2.97c5.02-4.08 8.32-5 14.06-1.05-1.12 7.62.22 15.46 2.33 22.84zm-10.14-17.59-6.31-.29.72 16.85 7.82 1.17z" fill="#aefe09"/><path d="m67.7 508.12-22 8-9.24-5.82-1.5-13.97c7.44 0 16.78-3.27 21.61-8.87l7.28 2.47-1.51 5.39c5.02 2.78 7.64 7.2 5.36 12.79zm-7.83-11.76c-.77-.56-17 4.06-16.95 7.47-.3 2.71-.17 6.08 3.29 5.33l13.44-6.09.21-6.71z" fill="#aefe09"/><path d="m44.75 421.61-1.82 6.33 4.77 6.09-1.69 7.95-22.33 4.3-9.23-8.89 1.53-13.95c7.78 2.2 17.01.45 23.5-4.06l5.26 2.24zm-4.92 6.92-16.88 2.37-.98 7.51c4.84-.92 17.1-.28 18.56-5.97z" fill="#aefe0a"/><path d="m128.72 118.94-.88 16.87 5.01-.47 6.97-4.51-.13 9.84-11.38 5.17-16.45-16.53 2.04-11.42zm-2.9 13.88-.43-6.06-5.55-.93c-1.17 1.03 4.72 6.49 5.98 6.98z" fill="#affe0b"/><path d="m74.73 513.47 1.14 13.79-19.52 9.05-9.94-5.01c-2.24-3.61 2.71-10.26 3.61-13.92l16.26 4.85 1.56-2.33-2.93-9.58 9.81 3.15zm-11.82 9.83-5.97-.57-1.52 1.56-.5 3.98c.85.95 8.89-4.11 7.98-4.98z" fill="#affe0a"/><path d="m709.78 419.69 4.32 11.07-9.81 6.5-2.22-.32-8.07-12.47-2.97.43-3.98 9.52-2.08-.64-3.42-8.28 6.08-9.94 22.14 4.14zm-4.75 5.74c-1.12.46-9.06-1.31-7.97 1.48 2.4 3.81 7.45 3.37 7.97-1.48z" fill="#affe0a"/><path d="m523.29 84.89c-1.49.51-8.28 2.23-9.31 1.89l-8.58-10.24 10.33-18.69 11.99-1.98 3.45 13.92-15.86 4.13c-.67 4.45 3.77 8.38 7.84 9.16.48.49.08 1.27.15 1.82zm-1.01-20.97c-2.24-1.65-5.16 6.42-4.98 7.98l5.55-3-.57-4.97z" fill="#affe0b"/><path d="m424.12 716.73-8.19 6.33-10.35-9.34 9.89-11.19c.95-4.85-9.18-4.5-12.02-4.49l5.02-6.48 13.52 1.43zm-7.69-11.68c-2.53-.33-3.58 2.53-3.97 4.52-.22 1.53 4.05 5.49 4.97 4.46z" fill="#aefe09"/><path d="m564.91 76.09c1.74-.54 8.87-.73 9.3 1.33l-4.57 6.42 1.45 5.33-2.48 2.49-5.37-.31c-3.57 5.62-8.92 9.13-7.41 16.54l-6.91 1.87-4.61-8.25c3.5-2.85 10.72-9.72 12.44-13.67 1.13-2.6-.98-4.92-.1-5.98 4.59.2 6.11-5.09 8.27-5.76z" fill="#affe0b"/><path d="m377.31 718.17-2.67 5.55c2.09 5.54-3.05 7.25-6.77 10.2l-2.32-1.46.91-7.41-3.24-.21c-3.71-1.25-2-8.47 3.24-6.85l.06-15.48-3.13-3.95 4.75-6.35 8.34 4.4c-2.57 2.81-2.88 18.28-1.47 20.44.38.59 1.64.74 2.31 1.11z" fill="#aefe09"/><path d="m158.61 86.01 1.99 3.56-1.86 3.87c-.37 2.95 8.98 16.07 14.03 13.41l-.45 6.05-2.27 2.72-8.27 1.22c.86-7.4-6.28-11.74-9.19-17.76l-4.8-.21c1.91-4.4-2.77-7.25-3.01-9.51-.28-2.53 2.35-5.67 2.03-8.47l3.03.46 3.6 5.44z" fill="#affe0a"/><path d="m696.82 467.06c.28-.18.22-1.12.32-1.58l9.41 5.86 2.47 10-8.42-2.9-1.75 2.69-5.37-.71-.57-4.91c-6.6-2.05-12.51-6.38-19.23-2.21l-3.57-6.46 6.47-6.5c3.14 2.71 16.92 8.91 20.24 6.72z" fill="#aefe0a"/><path d="m58.87 484.33c-4.6-1.13-14.76 1.39-18.67 3.77-2.35 1.43-1.67 2.23-2.81 4.32-7.4-1.14-11.93 1.35-17.41-5.59l7.01-2.95 1.09-5.4 4.88-.69 2.57 3.6c6.28-2.42 14.56-1.77 17.05-9.09l6.84 2.05z" fill="#aefe08"/><path d="m653.11 524.29c.35.92-.15 1.92.92 3.53 3.25 4.89 13.24 7.17 18.56 8.44 3.13 6.41 1.33 8.62-5.51 9.01l.88 6.86c-6.07 2.84-10.44-1.56-11.87-7.34 1.92-3.18 6.2 1.88 6.99-3.01-.24-1.03-10.58-6.64-12.35-6.3-2.1.41-2.81 4.28-5.61 3.79-.29-2.89-2.78-6.58-1.08-9.26.71-1.11 3.17-1.95 4.45-2.87 2.55-1.83.01-1.89 4.61-2.85z" fill="#aefe0a"/><path d="m307.58 692.08c-1.7 3.75-3.52 5.43-4.69 9.77-1.23 4.56-2.22 8.37.53 12.52-3.03 6.58-9.02 7.57-10.84-.33-14.31 10.55-8.02-14.41-1.91-9.55 1.41 1.98.43 5.9 3.93 5.55l2.99-14.93-5.38-2-.13-2.07 6.87-3.75 8.64 4.8z" fill="#affe0a"/><path d="m229.69 50.93c-.48 2.64.46 6.09-1.01 8.98-1.16.82-8.07-6.96-6.94-.55.67 3.79 4.21 7.53 5.07 11.43l6.87-.88-3.22 8.32-10.76.65c2.07-7.33-3-16.31-8.87-20.64l.98-7.21 8.81.83 1.16-3.32c3.09-4.38 5.12 1.18 7.9 2.38z" fill="#affe0a"/><path d="m20.98 410.44 13.99-2.48.99-5.51c8.58.26 8.43 9.55 4.42 14.88-5.8-2.22-17.06-2.53-20.58 2.91l-7.89-3.45 3.09-6.87-4.02-5.97c4.82-3.74 9.63-5.45 13.98 0l-3.98 6.46z" fill="#aefe09"/><path d="m713.02 331.55c.42 4.71-1.14 9.14-2.92 13.36l-2.05.61-7-12.97z" fill="#b0fe0f"/><path d="m102.86 608.18c-.1-2.07-5.03-11.01-3.99-11.98l13.96 5.49-6.03 5.97c-1.23.64-2.6.68-3.94.52z" fill="#b0fe0f"/><path d="m57.92 197.73c3.3-3.33 5.7-7.43 10.98-7.98l-1 13.98c-.44.45-8.06-3.31-9.3-3.98-.9-.48-.6-1.96-.68-2.02z" fill="#affe0b"/><path d="m505.29 681.08 4.02 10.98-13.98 1 7.9-11.34z" fill="#b0fe0f"/><path d="m445.39 35.95-13.97 2 2.07-9.9c2.39-1.64 12.13 4.16 11.9 7.91z" fill="#b0fe0d"/><path d="m703.06 365.51c-1.94 7.74-13.51 7.69-18.41 2.91-6.71-6.54-3.98-23.89-5.57-32.87l11.84 10.7c.81 2.97-8.24 19.2-1.41 19.26 7.25-3.26 11.73-7.65 20.48-6.05-.58-5.01 4.25-7.03 7.03-10.45.04-3.84-3.68.39-4.96.03 3.21-5.66 3.66-11.26 1.97-17.48l9.06-.58c1.83 1.31 2.32 26.07 1.5 29.6-2.15 9.29-13.97 12.4-20.08 4.95l-1.44-.02zm15.95-18.98v-1.99h-.98v1.99zm-8.48 13.98v1c.65-.33.65-.67 0-1z" fill="#aefe09"/><path d="m598.18 612.18-6.64 3.87-2.34-2.36 13.45-12.5c6.24 5.68-1.56 11.69-3.47 17.46.76 3.83 6.35-1.66 7.1-2.96 1.3-2.25-1.04-4.75 2.4-6.5l2.51 2.52c1.4 8.24-12.43 16.69-15.54 10.45-1.92-3.85 3.66-8.8 2.52-9.98zm1.51-2.98-1.49 1.49.47.47c.55-.64 2.01-1.3 1.02-1.96z" fill="#b1fe11"/><path d="m569.21 632.15c4.15 8.23-5 10.97-5.97 17.96 2.27.27 5.22-1.18 6.57-2.91 1.89-2.41 1.25-8.03 5.45-5.48 4.7 6.16-13.45 18.49-15.83 10.68-1.49-4.88 3.14-9.1 5.78-12.78l-8.68 5.31-3.29-2.3 15.96-10.49z" fill="#b1fe10"/><path d="m552.09 648.28.16 3.83-8.37 1.12-2.61 5.87c6.36 1.15 7.57-6.51 12.96-6.99l2.06 9.29-13.03 7.69-.55-3.02c2.67-3.15 9.04-3.88 8.53-8.96l-4.76 4.97c-5.81 2.67-11.79-.14-9.77-7.02 1.27-3.94 11.3-10.12 15.39-6.78z" fill="#b2fe14"/><path d="m582.95 620.37c2.64-.51 5.03-.36 7.23 1.31 6.08 5.33 4.75 11.02-1.47 15.46-14.12 10.1-20.91-13.83-5.76-16.77zm.98 3.91c-9.63 1.4-4.72 15.56 3.25 9.34 4.43-3.46.89-9.94-3.25-9.34z" fill="#b0fe0d"/><path d="m683.06 274.62c-2.23.24-2.64.23-3.79-1.69-1.05-1.75-5.11-15.37-4.19-16.28 7.04-1.53 8.67 5.74 12.12 9.35 1.34 1.4 1.43 2.08 3.85 1.63.13-4.52-1.59-8.43-6.07-9.63l-.91-2.86 1.51-1.52c6.32-.98 10.69 10.73 9.29 15.31l-5.84 3.3-8.47-9.57z" fill="#b1fe10"/><path d="m702.04 292.6-3.93-.05-2.04-10.26-3.01-.66c2.22 3.52 5.71 12.59-.7 13.74-11.51 2.05-10.8-16.91-6.77-17.74l2.44 1.58c-.72 3.57-1.64 6.43-.04 9.99 1.91 4.24 4.98 1.52 5.05-1.06.08-3.23-5.11-6.69-3.97-10.51l9.03-.59 3.95 15.56z" fill="#b2fe14"/><path d="m674.82 231.9c9.36-1.8 12.93 7.95 10.72 15.75l-5.19 3.8-7.66-.91c-4-2.26-5.76-10.51-3.87-14.63.84-1.78 4.1-3.65 6-4.01zm-.04 4.98c-5.4 1.63-2.15 11.85 3.32 10.38 6.59-1.77 4.94-12.88-3.32-10.38z" fill="#b0fe0f"/><path d="m676.93 226.55-6.12.98-8.22-7.81c.01 3.78 3.34 6.74 3.54 10.45.11 2.15-1.86 2.11-2.9 1.38-.75-.53-7.78-16.2-7.12-16.83 9.57-2.47 9.72 8.09 16.97 8.98 2.03-6.73-7.32-8.42-7.96-11.5-.44-2.1 1.02-1.59 2.51-1.53 7.3.29 10.68 9.49 9.3 15.88z" fill="#b0fe0d"/><path d="m321.3 35.7-9.72 5.24 11.99-.98v3.98s-17.9 1.94-17.9 1.94l-.82-3.28c.8-5.92 11.71-6.9 12.72-9.14l-.5-2.5c-8.28-1.13-6.8 4.78-13.47 4.99-2.06-11.29 24.96-13.59 17.71-.25z" fill="#b1fe11"/><path d="m392.47 24.97v3.98s-10.52-1.05-10.52-1.05l-2.44 2.56c5.07-1.18 13.49-1.21 13.06 5.98-.51 8.57-19.5 6.88-19.07-1.49 5.72-.67 8.25 5.42 14.97 1.98l-.44-3.03-13.54-.95 2.04-8.93 15.94.96z" fill="#b1fe11"/><path d="m350.52 40.94c-.1-8.1 6.91-7.32 11.98-9.49 7.55-3.23-.72-5.99-5.95-2.9-.41.24-2.69 4.61-5.03 2.4-1.39-1.32 1.47-6.15 3.7-6.78 1.94-.55 9.62-.56 11.56 0 2.19 1.16 4.46 3.16 3.32 5.81-1.39 4.39-8.76 4.73-12.59 5.98l11.98.99v3.99h-18.98z" fill="#b0fe0f"/><path d="m332.26 25.18c2.35-.52 7.22-.54 9.56 0 6.91 1.6 7.17 15.15-1.84 16.7-15.37 2.65-16.69-14.7-7.72-16.7zm4.96 3.03c-3.88.74-6.77 2.68-5.5 7.03l2.53 2.5h5.59s2.53-2.5 2.53-2.5c1.15-3.79-1.39-6.62-5.15-7.03z" fill="#b0fe0d"/><path d="m160.79 647.13c-.2 5.97 5.66 5.32 9.46 6.01s2.52 3.99-.2 4.8c-6.21 1.84-21.11-10.42-10.54-14.62l12.26 2.8-8.84-6.11 1.38-3.87 14.4 11.37-1.96 2.1-15.96-2.47z" fill="#b1fe11"/><path d="m217.44 672.84c-4.05 3.87-15.91-3.13-16.71.77 2.21 5.2 7.58 4.09 11.99 3.97 1.18.96 1.22 1.18.51 2.53-2.87 5.53-17.42-.99-17.42-6.51l2.58-4.33 12.32.82-8.76-5.19-.21-3.78 16.83 9.32-1.11 2.41z" fill="#b1fe10"/><path d="m158.78 637.14-3.92-.06c.42-4.49-3.5-7.75-7.54-8.93-6.19 8.06 13.95 6.64 4.98 13.98-2.93 2.39-4.32 2.49-7.45.45-4.26-2.78-13.87-11.47-2.05-8.44.39-.39-3.47-8.24 1.71-9.79l3.7-.17c5.77 2.07 11.65 6.14 10.56 12.96zm-8.98.01-5.99-2c-.63 2.95 6.83 6.29 5.99 2z" fill="#b1fe11"/><path d="m183.48 651.28c10.87-1.99 19.22 14.91 5.54 19.64-5.97-.6-11.42-3.46-13.07-9.54-.52-3.83 3.96-9.45 7.53-10.1zm-.06 4.99c-4.06 1.41-3.52 8.46 2.06 9.64 9.7 2.05 7.13-12.83-2.06-9.64z" fill="#b0fe0f"/><path d="m42.95 273.63 4-10.98 3.93 1.56c-1.92 4.73-2.94 10.38-4.84 15.01-.46 1.11.55 1.52-1.61 1.45-3.89.34-5.32-4.61-5.4-7.64-.06-2.41 2.78-8.47-1.57-9.38-1.21.63-2.42 4.26-2.49 5.63-.17 3.08 1.44 3.59 1.71 5.05.8 4.34-4.4 4.35-5.51.59-2.06-6.99 4.29-22.65 11.58-12.59l.2 11.29z" fill="#b1fe10"/><path d="m31.97 318.56 3.1-10.86 3.87-.12c-.85 4.97-1.32 10.26-2.3 15.19-.29 1.46-.16 4.26-2.12 3.72-7-1.93-5.13-10.52-6.58-15.91l-2.92.04c-3.02 5.46 1.31 8.65.93 13.93l-5.25-3.22c-4.4-17.52 12.27-23.95 11.26-2.77z" fill="#b1fe11"/><path d="m45.93 237.68c1.73 1.57-6.21 10.67-2.49 12.96 1.48-.05 1.87-14.32 10.46-10.45 7.1 3.2.88 20.08-6.97 18.47v-4c-3.73 2.26-7.2-1.25-9.91-3.6l5.05-13.23 3.85-.14zm6.99 6.99-4 .49-.91 1.08-1.07 7.41c4.98.6 6.04-5.19 5.98-8.98z" fill="#b2fe14"/><path d="m40.62 284.93c4.14 4.53 1.7 10.76-1 15.35l-6.12 2.37c-3.36-.36-7.8-1.86-8.51-5.58-3.49-9.96 8.16-20.32 15.63-12.14zm-10.42 2.93c-3.41 3.47-.83 12.47 5.76 9.25 7.49-3.67-.73-14.36-5.76-9.25z" fill="#b0fe0f"/></svg>