<?xml version="1.0" encoding="UTF-8"?><svg id="Layer_1" xmlns="http://www.w3.org/2000/svg" viewBox="0 0 801.03 519.39"><defs><style>.cls-1{fill:#d5d5d5;}</style></defs><path class="cls-1" d="M565.98,67.38c6.18,0,5.29,9.47,5.32,14.78.03,3.89.36,11.72-5.24,11.73l-66.44.11c-2.68,0-5.42,2.73-5.42,4.96v29.14c-.01,2.52,2.49,5.04,5.41,5.05l75,.11c3.02,0,4.62,2.59,4.87,5.02.78,7.51.55,10.98.09,18.54-.13,2.1-1.21,5.45-4.48,5.45h-110.19c-2.73,0-4.73-2.15-5.17-3.97-.05,3.15-3.93,4.02-5.9,4.02l-29.6-.03c-3.51,0-6.35-2.46-8.12-5.13l-9-13.54-22.88-33.68c-3.4-5.01-6.29-9.86-9.86-14.67-1.57-2.11-4.62-2.57-6.66-.63-4.26,4.06-8.38,8.13-12.42,12.5-2.11,2.29-4.05,5.01-4.05,8.21l-.04,41.76c0,2.39-1.85,4.4-4.06,4.62l-4.65.46c-4.85.48-17.45.17-22.89-.66-1.35-.21-3.08-2.73-3.08-4.66l-.02-147.57c0-2.91,2.41-5.64,5.24-5.64h23.64c2.43,0,5.74,1.72,5.74,4.63l.13,52.67c0,1.15.84,2.67,1.56,3.09s2.92.35,3.59-.26c2.66-2.45,5.34-5.24,7.82-7.9l8.19-8.76,4-4.08,5.59-6.14,10.3-10.65,11.79-12.76c5.88-6.37,8-10.07,16.07-10.04l29.48.12c.87,0,2.41,1.15,2.56,1.91s-.32,2.53-.91,3.16l-5.94,6.34c-1.56,1.67-2.98,3.47-4.82,4.87-1.68,1.28-2.79,2.92-4.29,4.44l-27.35,27.65c-2.21,2.23-3.95,4.54-6.42,6.47-3.93,3.06-7.63,7.54-4.2,12.42l22.74,32.4,34.5,48.6,3.9,5.88.02-149.49c0-2.85,3.12-4.7,5.73-4.7h215.46c2.86.61,4.74,1.84,4.82,4.77l.27,8.92,4-3.41c5.65-4.81,11.92-8.13,19.11-10.06,5.54-1.49,10.9-2.77,16.73-3.11,12.67-.74,26.27.21,38.28,4.79s21.76,12.68,27.31,24.15c1.75,3.62,6,15.58,3.23,19.45-1.14,1.59-3.78,2.01-5.64,2l-21.96-.06c-5.68-.02-4.5-7.86-9.69-14.33-2.46-3.06-5.99-5.59-9.76-6.98-10.71-3.93-28.3-4.65-36.75,4.98-2.79,3.18-4.15,8.02-3.88,12.03.34,4.9,3.21,8.52,7.33,10.62,2.45,1.25,5.09,2.61,7.72,3.38l13.48,3.93,20.71,5.32,8.85,2.37c6.29,1.68,11.85,4.04,17.09,8.04,5.76,4.39,11.47,9.07,14.73,15.85,8.1,16.88,4.78,38.92-8.61,52.18-10.86,10.75-26.69,16.33-41.75,17.27-22.34,1.39-41.91-.81-60.26-14.38-2.35-1.74-4.19-3.67-6.05-5.78-6.9-7.82-10.67-17.06-11.88-27.45-.23-1.96-.6-3.73.64-5.49.82-1.17,2.77-2.32,4.61-2.31l22.91.04c6.98.01,3.48,10.74,12.66,19.71,4.95,4.84,12.09,7.85,18.98,8.81,10.78,1.51,7.69,1.31,17.5-.02,5.74-.78,11.72-2.8,16.23-6.67,3.67-3.15,5.98-8.79,5.56-13.61-.63-7.25-6.15-12.28-12.49-15.08-7.03-3.1-14.21-4.98-21.65-6.88l-11.4-2.91c-8.41-2.14-16.42-4.66-24.29-8.32-10.79-5.02-21.11-15.2-23.22-27.44l-.91-5.3c-1.15-6.64.66-13.28,2.23-19.91h-29.68c-1.6-.01-4.12.45-5.35,1.22-2.21,1.39-2.26,4.19-2.26,6.7l-.05,115.89c0,3.14-2.15,5.81-5.12,5.82l-23.99.05c-2.69,0-5.52-2.16-5.52-5.48V46.06c0-2.79,1.18-10.66-3.14-12.49-1.02-.43-3.18-.92-4.67-.92l-95.56.04c-3.05,0-5.88,2.21-5.88,5.08l.03,24.35c0,2.55,2.45,5.19,5.21,5.2l66.5.06Z"/><path class="cls-1" d="M554.24,424.26c6.18,0,5.29,9.47,5.32,14.78.03,3.89.36,11.72-5.24,11.73l-66.44.11c-2.68,0-5.42,2.73-5.42,4.96v29.14c-.01,2.52,2.49,5.04,5.41,5.05l75,.11c3.02,0,4.62,2.59,4.87,5.02.78,7.51.55,10.98.09,18.54-.13,2.09-1.21,5.45-4.48,5.46l-110.18.03c-2.98-.77-5.44-1.96-5.44-5.24l-.11-128.26-23.89,71.69-10.7,32.2c-3.6,8.91-5.21,17.98-9.37,26.53-.75,1.54-3.73,3.01-5.61,3.01l-29.23-.03c-4.39,0-6.01-3.55-7.06-6.88l-6.48-20.62-9-27.21-10.62-32.69-7.77-24.47-7.76-23.46-.04,129.72c0,3.29-1.67,4.91-4.76,5.74-1.43.38-2.86.02-4.58.02l-106.71-.11c-3.35,0-5.46-2.71-5.46-5.65v-146.34c0-4.04,2.34-6.66,6.45-6.66l23.64-.03c2.34,0,4.58,2.25,4.58,4.89v109.29s-.11,4.25-.11,4.25l.26,6c.35,2.83,2.44,5.18,5.64,5.18l46.84.02-.07-115.22c0-.7-2.27-13.83,4.19-13.9l27.3-.29,25.76-.24c2.42-.02,5.42,1.56,6.18,3.87l2.94,8.91,7.96,24.74,18.51,58.5c.84,2.66,2.67,10.66,5.87,9.62,1-.32,2.06-1.43,2.41-2.5l5.28-16.33,26.03-80.86c1.02-3.16,3.13-5.91,6.56-5.91l24.88-.02h3.27s108.36,0,108.36,0c2.76,0,4.69,2.35,4.7,4.78l.07,19.24c0,1.68-2.06,5-4.11,5.01l-73.63.12c-3.01,0-5.87,2.17-5.86,5.07l.03,24.35c0,2.55,2.45,5.2,5.21,5.2l66.5.06Z"/><path class="cls-1" d="M440.26,339.67c-3.53-2.38-3.89-6.26-4.35-9.9l-1.7-13.44c-1.1-8.73-.61-17.3-5.17-26.09-1.74-3.37-3.78-7.1-7.6-8.72s-8.29-3.18-12.52-3.18h-31.91c-2.86,0-5.81,1.99-5.82,5.06l-.09,51.81c0,2.76-2.61,5.14-5.2,5.19-8.31.15-16.36.27-24.64-.15-6.09-.31-11.97-.31-18.12-.22-3.27.05-6.04-1.4-7.16-4.65l-4.45-12.91-4.6-12.8c-.89-2.48-3.39-4.87-6.34-4.87l-50.77.02c-2.38,0-4.55,2.14-5.25,3.96l-4.11,10.74-5.14,14.87c-.94,2.72-2.77,5.5-6.33,5.5l-25.09.02c-.83,0-2.26-.8-2.72-1.36-2.02-2.48,1.32-9,2.43-11.95l23.63-62.55,8.1-21.07,9.56-25.58,11.08-29.21c1.56-4.11,3.83-6.52,8.53-6.51l24.39.02c3.51,0,5.79,1.64,6.99,4.83l8.52,22.57,5.97,16.1,9.69,25.96,9.31,24.82,6.98,18.17.13-108.22c0-3.02,4.26-4.22,6.59-4.22l83.05.04c1.89,0,3.98.76,5.77,1.01,14.9,2.12,27.87,11.92,33.14,25.95,4.14,11.03,4.22,19.1,1.64,30.37-1.22,5.34-5.29,13.59-9.42,16.99l-8.44,6.94c-.54.44-1.21,1.99-1.11,2.65.42,2.74,8.16,4.79,12.86,14.55s5.07,14.38,5.8,24.66l1.15,16.22c.48,6.81,3.71,15.12,2.38,17.35-.48.81-2.32,2.03-3.38,2.03l-21.25-.08c-1.3,0-3.7-.49-5.03-.71ZM430.31,244.79c2.16-3.36,2.57-7.22,3.33-10.85.33-1.58.1-3.18-.03-4.8-.47-5.73-1.82-11.39-6.26-15.29-3.85-3.37-8.81-5.37-14.09-5.39l-34.43-.16c-1.44,0-3.41.46-4.82.89-1.9.58-2.88,3.27-2.87,5.19l.05,33.64c0,3.44,3.12,5.53,6.45,5.52l35.14-.02c6.79,0,13.75-2.85,17.54-8.73ZM290.17,279.19c2.25,0,4.82-2.41,4.31-4.38-1-3.87-2.1-7.38-3.36-11.06l-7.66-22.43-4.81-12.99c-.29-.8-1.6-1.93-2.33-2.11-3.56-.88-5.27,7.53-6.1,9.81l-8.87,24.35c-1.74,4.77-3.45,9.31-4.61,14.26-.58,2.48,1.93,4.48,4.39,4.49l29.03.06Z"/><path class="cls-1" d="M82.23,40.45l-.04,116.01c0,3.14-2.16,5.83-5.13,5.83h-24.46c-2.49.01-5.05-2.47-5.05-5.43V46.05c0-2.77,1.18-10.66-3.11-12.48-1.02-.43-3.29-.91-4.61-.91l-35.17-.06c-2.43,0-4.49-2.3-4.54-4.68C-.03,21.51-.07,15.24.17,8.91c.12-3.14,2.44-5.42,5.56-5.41l119.02.28,27.4.4c1.69.02,3.56,2.63,3.56,4.6l.02,147.82c0,3.29-1.66,4.95-4.76,5.74-1.37.35-2.96.12-4.48.1l-20.17-.24c-2.01-.02-4.78-1.72-4.78-4.16l-.02-125.39-33.43.08c-1.72,0-4.14,1.1-4.77,2.26-.77,1.42-1.08,3.2-1.08,5.46Z"/><path class="cls-1" d="M581.58,272.06l-66.64.12c-2.68,0-5.42,2.73-5.42,4.96v29.14c-.01,2.52,2.49,5.04,5.41,5.05l75,.11c3.02,0,4.62,2.59,4.87,5.02.78,7.51.55,10.98.09,18.54-.13,2.09-1.21,5.45-4.48,5.46l-110.18.03c-2.96-.77-5.45-1.96-5.45-5.25v-148.83c0-2.85,3.16-4.7,5.7-4.7l107.91.02c2.73,0,4.68,2.38,4.7,4.77l.17,17.79c.02,2.08-1.3,6.42-4.23,6.43l-73.61.17c-3.02,0-5.87,2.13-5.87,5.07l.03,24.28c0,3.03,2.44,4.73,5.21,5.27l66.5.03c1.58,0,3.86,1.23,4.22,2.49,1.19,4.17,1.1,8.04,1.13,12.31.02,3.31.38,11.7-5.05,11.71Z"/><path class="cls-1" d="M277.09,104.44c.82-2.23,3.56-2.88,5.72-2.88h22.04c2.24-.01,5.11,1.48,4.86,4.4-.84,9.67-4.06,18.81-8.86,27.44-6.95,12.5-18.23,21.37-31.4,26.76-10.05,4.12-26.36,7.12-36.6,5.24l-9.54-1.74c-11.85-2.17-25.05-8.5-34.18-16.41-8.24-7.13-14.44-15.93-18.86-25.97-2.08-4.73-3.4-9.64-4.68-14.75-1.36-5.43-1.93-11.04-2.6-16.74-.33-2.77-.08-5.79,0-8.57l.13-4.21c.3-10,3.72-24.71,8.18-33.97,3.38-7.03,7.39-13.66,12.68-19.36C197.35,9.28,215.48,1.24,234.91.11c3.84-.22,7.22-.05,10.98.07,22.58.72,43.16,11.87,54.9,31.38,3.62,6.02,5.68,12.35,7.37,19.27.3,1.21-.12,3.1-.78,4.01-.59.82-2.49,1.75-3.7,1.75l-20.39.05c-8.25.02-7.99-3.37-9.69-7.09-4.48-9.78-12.93-16.33-23.06-19.35-2.97-.88-5.42-1.04-8.58-1.22-16.96-.92-32.53,8.64-38.72,24.62-1.54,3.98-3.1,8.01-3.95,12.26-3.8,18.92-1.92,42.53,10.89,57.66,4.68,5.53,10.27,9.23,16.97,11.27,13.35,4.08,29.84,2.67,39.22-8.42,7.57-8.95,6.92-11.63,10.72-21.96Z"/><path class="cls-1" d="M597.87,464.33c-.34,2.22-.03,4.75-2.14,5.85-4.02,2.11-9.47,2.39-13.27-.52-1.47-1.13-1.45-4.24-1.69-5.91l-1.09-7.73-.85-7.31-1.23-9.26-.93-8.3-2.16-17.19c-.26-2.06-1.04-4.65-1.04-6.73l-.05-42.68c0-2.52,3.65-4.06,5.72-4.06l21.54.02c1.77,0,4.74,1.57,4.75,3.49l.09,30.01c.7,2.81.4,5.4.08,8.27-.19,1.71-.07,3.83-.3,5.49l-1.62,11.67-1.22,10.39-1.94,14.41c-.37,2.72-.36,5.29-.78,8.01l-1.85,12.04Z"/><path class="cls-1" d="M606.85,512.55c-.02,3.25-1.83,6.12-5.01,6.11l-25.45-.07c-1.95,0-4.03-3.26-4.03-5.11l-.06-23.4c0-2.14,2.25-4.97,4.71-4.98l24.35-.1c1.39,0,4.15,1.21,4.56,2.42.56,1.66,1.05,3.62,1.05,5.2l-.11,19.92Z"/></svg>