<svg id="Layer_2" data-name="Layer 2" xmlns="http://www.w3.org/2000/svg" viewBox="0 0 800 452.87"><defs><style>.cls-1{fill:#fff;}</style></defs><title>logo</title><path class="cls-1" d="M478.22,220.7H535l2.75,9.67,76.87-3.28L549.23,38.85H464L395.36,236.43l79.06-3.36Zm28.52-109.65,15.45,60.32H490.7Z"/><polygon class="cls-1" points="721.15 104.51 763.34 106.59 763.34 38.85 605.27 38.85 605.27 106.59 646.57 104.51 646.57 225.73 721.15 222.56 721.15 104.51"/><path class="cls-1" d="M97.24,113S79.69,90.92,36.66,90v52.24c8.24-3.61,16.3-7.4,23.93-11.36C60.59,130.83,90.21,111.83,97.24,113Z"/><polygon class="cls-1" points="36.66 419.08 99.76 419.08 99.76 358.22 145.72 358.22 145.72 312.75 99.76 312.75 99.76 294.87 152.67 294.87 152.67 261.71 36.66 266.65 36.66 419.08"/><path class="cls-1" d="M352.54,417.78l-14.77.63-56.3-162.19-80.15,3.42L146,419.08h65.58l6.71-21.86h47.45l6.25,24L0,432.8l.86,20.07L800,418.82l-.86-20.06-41.6,1.77L732,245.18H670l-25,84-24.79-84H558.12L531,410.18l-21.28.91L470,351c1.5-.66,2.65-1.16,3.48-1.49q28.08-10.93,28.08-45.21,0-25.35-17.39-41.24a66.19,66.19,0,0,0-25.94-14.38l-105.73,4.5ZM228.69,356l13.42-50.43L255,356ZM692,326.42,700.23,403l-31.6,1.35ZM595.63,350l2.24-23.1,24.18,79.38-32.85,1.4ZM414.9,292.13h10a4,4,0,0,0,1.25.25q9,1.25,12.8,7.95a17,17,0,0,1,1.5,8.94q-1.5,13.43-17.06,13.42H414.9ZM440.54,414l-25.64,1.09V360.7Z"/><path class="cls-1" d="M308.69,169h57.95V114.62H308.69V95h64.19V38.26L800,20.06,799.14,0,0,34.05.86,54.11l35.8-1.52V83.83C52.45,77.6,82.28,72.77,117,101.54c0,0-11.88-24.19-24.54-34.91s-4.77-16-4.77-16A50.46,50.46,0,0,0,102.12,64.4s29.14,21.36,41.53,46.5c0,0,24.13-3.08,31.75-12.07l.82,4s-7.63,13.4-18.24,19.33c0,0,6.26,3.68,2.8,17.85S180,188,180,188s9.27,15.25,5.88,23.22-12.57,13-27.94,7.2c0,0-46-12-53.63-23.4,0,0-12.93-2-25,11.5,0,0-22.44,20.31-31.65,26,0,0-4.4,3.78-11,10v4.33H146.89q28.53,0,48.14-14.55,21.69-16,21.69-43.68a49.26,49.26,0,0,0-9.36-29.42,49.87,49.87,0,0,0-24.51-18.43L178.1,139a39.86,39.86,0,0,0,21.69-16.93,48,48,0,0,0,7.43-26.45A53.44,53.44,0,0,0,200.68,70q-8.13-15.09-25.36-23.36l58.79-2.51V243.3l140.25-6V188.61H308.69Z"/></svg>