<svg xmlns="http://www.w3.org/2000/svg" viewBox="0 0 600 693.07"><defs><style>.cls-1{fill:#313131;}</style></defs><title>small_logo</title><g id="Layer_3" data-name="Layer 3"><path class="cls-1" d="M201.86,247.07S143.37,173.51,0,170.28V344.35c27.47-12,54.34-24.67,79.75-37.86C79.75,306.49,178.43,243.18,201.86,247.07Z"/><path class="cls-1" d="M568.81,401a166.27,166.27,0,0,0-81.68-61.39l-15.84-5.94q45.52-14.85,72.28-56.43,24.72-38.61,24.75-88.12,0-44.55-21.78-85.15Q518.79,52.5,459.4,24.75,406.92,0,342.57,0H0V149.89c52.61-20.75,152-36.86,267.76,59,0,0-39.6-80.58-81.8-116.31s-15.89-53.46-15.89-53.46,15.72,25.12,48.05,46c0,0,97.12,71.19,138.39,154.94,0,0,80.4-10.24,105.79-40.22l1.29,6.41s-24,51.72-59.34,71.47c0,0,20.87,12.28,9.35,59.49S477.52,497,477.52,497s30.91,50.8,19.59,77.35-41.86,43.29-93.08,24c0,0-153.43-40.1-178.7-78,0,0-43.09-6.76-83.25,38.31,0,0-74.77,67.66-105.44,86.67,0,0-14.67,12.58-36.64,33.2v14.46H367.32q95.06,0,160.4-48.52Q600,591.09,600,499,600,444.58,568.81,401Z"/></g></svg>